<svg xmlns="http://www.w3.org/2000/svg" viewBox="0 0 189 189"><defs><style>.cls-1{fill:#262626;}.cls-2{fill:#1c2021;}.cls-3{fill:#282828;stroke-width:0.25px;}.cls-3,.cls-4,.cls-5{stroke:#3d3836;stroke-miterlimit:10;}.cls-4{fill:#32302f;}.cls-5{fill:#504a46;}.cls-6{fill:#928374;}.cls-7{fill:#3d3836;}</style></defs><g id="Layer_7" data-name="Layer 7"><circle class="cls-1" cx="94.5" cy="94.5" r="93.5"/><path class="cls-2" d="M100,7.5A92.5,92.5,0,1,1,7.5,100,92.5,92.5,0,0,1,100,7.5m0-2A94.5,94.5,0,1,0,194.5,100,94.6,94.6,0,0,0,100,5.5Z" transform="translate(-5.5 -5.5)"/><path class="cls-3" d="M38.33,37.93c-9.35,9.34-8.95,27.19.52,46.5C21.52,96,12.22,110,15.55,122.45c3.43,12.77,18.72,21.59,40.18,23,1.55,20.77,9.05,35.82,21.47,39.14C90,188,104.88,178,116.84,160.17c19.94,10,35.76,11,45.23,1.5,9.13-9.13,7.89-26.17-1.42-45.24C179.36,104.07,188,90,184.57,77.07c-3.35-12.46-18.73-19.9-39.91-21.37C143.34,33.46,135.24,19,122.3,15.53c-12.47-3.33-26.6,6.28-38.45,23.9C65.11,30.37,47.42,28.84,38.33,37.93Z" transform="translate(-5.5 -5.5)"/><path class="cls-4" d="M118.38,47.31q-2.35,1.14-4.65,2.42c-.6-1-1.22-2-1.86-3-10.33-15.68-22.55-24.4-32-21.87-9,2.43-15,15.25-16.2,33-.12,1.75-.2,3.5-.23,5.25-1.16,0-2.33.07-3.5.14C41.23,64.36,27.57,70.6,25.06,80c-2.41,9,5.74,20.58,20.47,30.49Q47.72,112,50,113.35c-1,1.8-1.94,3.59-2.79,5.34-7.58,15.69-8.65,29.48-2.06,36.08,6.81,6.81,21.62,5.66,37.88-2.31,1.32-.65,2.62-1.33,3.9-2.05,1,1.63,2,3.22,3.06,4.79,9.81,14.4,21.22,22.22,30.22,19.8,9.31-2.5,15.71-15.89,16.93-34,.09-1.42.15-2.9.18-4.4,1.89,0,3.79-.12,5.68-.26,17.37-1.31,29.84-7.28,32.25-16.3,2.48-9.3-5.93-21.54-21-31.62q-1.73-1.15-3.6-2.28c.49-.9,1-1.79,1.41-2.68,8.42-16.77,9.87-31.72,3-38.62-6.62-6.62-20.69-5.35-36.64,2.44Z" transform="translate(-5.5 -5.5)"/><path class="cls-5" d="M146.38,118.69q-1.27.42-2.61.81a154.84,154.84,0,0,0-7.87-19.69,155.37,155.37,0,0,0,7.57-19.4q2.39.69,4.62,1.46c14.38,4.95,23.15,12.27,23.15,17.91,0,6-9.47,13.81-24.86,18.91ZM140,131.33c1.56,7.86,1.78,15,.75,20.52-.93,5-2.79,8.31-5.09,9.64-4.9,2.84-15.37-.85-26.67-10.57-1.29-1.11-2.6-2.3-3.91-3.56a156.09,156.09,0,0,0,13-16.54,155.33,155.33,0,0,0,21-3.25c.32,1.28.6,2.54.84,3.76ZM75.45,161c-4.79,1.69-8.6,1.74-10.9.41-4.9-2.82-6.94-13.74-4.16-28.38q.49-2.59,1.13-5.16a155.91,155.91,0,0,0,20.95,3,161.52,161.52,0,0,0,13.34,16.49c-1,.93-2,1.84-3,2.72-6,5.27-12.07,9-17.4,10.89ZM53,118.65c-7.58-2.59-13.83-6-18.12-9.63-3.86-3.3-5.81-6.58-5.81-9.24,0-5.66,8.44-12.88,22.51-17.78q2.66-.93,5.35-1.69a159.72,159.72,0,0,0,7.58,19.63,161.1,161.1,0,0,0-7.67,19.91Q54.94,119.3,53,118.65ZM60.55,67.5c-2.92-14.93-1-26.19,3.9-29,5.2-3,16.69,1.28,28.81,12,.78.69,1.55,1.41,2.33,2.16A161.51,161.51,0,0,0,82.35,69.06a163.79,163.79,0,0,0-20.73,3.22c-.4-1.58-.76-3.18-1.07-4.78Zm75-29.21c5.2,3,7.23,15.1,4,31-.22,1-.45,2.07-.7,3.09A159.13,159.13,0,0,0,118,69.07a156.74,156.74,0,0,0-13.14-16.4c1.16-1.12,2.36-2.21,3.57-3.27,11.48-10,22.2-13.93,27.09-11.11Z" transform="translate(-5.5 -5.5)"/><path class="cls-5" d="M146.21,118.78q-1.28.42-2.61.81a155.74,155.74,0,0,0-7.87-19.69,155.25,155.25,0,0,0,7.56-19.4c1.59.46,3.14,1,4.62,1.46,14.39,5,23.16,12.27,23.16,17.91,0,6-9.48,13.81-24.86,18.91Zm-6.38,12.64c1.55,7.86,1.78,15,.74,20.52-.92,5-2.78,8.31-5.08,9.64-4.9,2.84-15.38-.85-26.67-10.57q-1.95-1.66-3.91-3.56a156.09,156.09,0,0,0,13-16.54A155.33,155.33,0,0,0,139,127.66c.31,1.28.59,2.54.84,3.76ZM75.28,161.09c-4.79,1.69-8.6,1.74-10.9.41-4.91-2.82-6.94-13.74-4.16-28.38q.49-2.6,1.13-5.16a155.68,155.68,0,0,0,20.95,3,160.18,160.18,0,0,0,13.34,16.49c-1,.93-2,1.84-3,2.72-6,5.27-12.07,9-17.39,10.89ZM52.86,118.74c-7.58-2.59-13.84-6-18.13-9.63-3.85-3.3-5.8-6.58-5.8-9.24,0-5.66,8.44-12.88,22.51-17.78q2.66-.93,5.35-1.69A159.61,159.61,0,0,0,64.36,100a162.6,162.6,0,0,0-7.66,19.91Q54.76,119.39,52.86,118.74Zm7.51-51.15c-2.92-14.93-1-26.19,3.9-29,5.2-3,16.7,1.28,28.82,12,.77.69,1.55,1.41,2.33,2.16A158,158,0,0,0,82.18,69.15a164,164,0,0,0-20.74,3.22c-.39-1.58-.75-3.18-1.07-4.79Z" transform="translate(-5.5 -5.5)"/><circle class="cls-6" cx="94.5" cy="94.5" r="9"/><path class="cls-7" d="M100,92a8,8,0,1,1-8,8,8,8,0,0,1,8-8m0-2a10,10,0,1,0,10,10,10,10,0,0,0-10-10Z" transform="translate(-5.5 -5.5)"/></g></svg>