<svg xmlns="http://www.w3.org/2000/svg" viewBox="0 0 614.45 191.67"><defs><style>.cls-1,.cls-5{fill:#fbfbfb;}.cls-2{fill:#c3c3cc;}.cls-3{fill:#cac9d0;stroke-width:0.25px;}.cls-3,.cls-4,.cls-5{stroke:#c3c3cc;stroke-miterlimit:10;}.cls-4,.cls-7,.cls-8{fill:#b1b6be;}.cls-6{fill:#e3e3e3;}.cls-7{font-size:128px;font-family:ColonnaMT, Colonna MT;}.cls-8{font-size:36px;font-family:MesloLGS-NF-Italic, MesloLGS NF;font-style:italic;}</style></defs><g id="Layer_7" data-name="Layer 7"><circle class="cls-1" cx="94.5" cy="97.17" r="93.5"/><path class="cls-2" d="M104.89,7.5A92.5,92.5,0,1,1,12.39,100a92.5,92.5,0,0,1,92.5-92.5m0-2a94.5,94.5,0,1,0,94.5,94.5,94.6,94.6,0,0,0-94.5-94.5Z" transform="translate(-10.39 -2.83)"/><path class="cls-3" d="M43.22,37.93c-9.35,9.34-8.95,27.19.52,46.5C26.41,96,17.11,110,20.44,122.45c3.43,12.77,18.72,21.59,40.17,23,1.56,20.77,9.06,35.82,21.48,39.14,12.77,3.4,27.68-6.59,39.64-24.45,19.94,10,35.76,11,45.23,1.5,9.13-9.13,7.88-26.17-1.42-45.24,18.71-12.36,27.39-26.42,23.92-39.36-3.35-12.46-18.74-19.9-39.91-21.37-1.32-22.24-9.42-36.72-22.36-40.17-12.48-3.33-26.6,6.28-38.45,23.9C70,30.37,52.31,28.84,43.22,37.93Z" transform="translate(-10.39 -2.83)"/><path class="cls-4" d="M123.27,47.31q-2.35,1.14-4.65,2.42c-.6-1-1.22-2-1.86-3-10.33-15.68-22.55-24.4-32-21.87-9,2.43-15,15.25-16.19,33-.12,1.75-.2,3.5-.23,5.25-1.17,0-2.33.07-3.5.14C46.12,64.36,32.46,70.6,30,80c-2.41,9,5.73,20.58,20.47,30.49q2.19,1.47,4.45,2.83c-1,1.8-1.94,3.59-2.79,5.34-7.58,15.69-8.65,29.48-2.06,36.08,6.81,6.81,21.62,5.66,37.88-2.31,1.32-.65,2.62-1.33,3.9-2.05,1,1.63,2,3.22,3.06,4.79,9.81,14.4,21.22,22.22,30.22,19.8,9.31-2.5,15.71-15.89,16.92-34,.1-1.42.16-2.9.18-4.4,1.9,0,3.79-.12,5.69-.26,17.37-1.31,29.84-7.28,32.25-16.3,2.48-9.3-5.93-21.54-21-31.62q-1.72-1.15-3.6-2.28c.49-.9,1-1.79,1.41-2.68,8.42-16.77,9.87-31.72,3-38.62-6.62-6.62-20.69-5.35-36.65,2.44Z" transform="translate(-10.39 -2.83)"/><path class="cls-5" d="M151.27,118.69q-1.28.42-2.61.81a154.84,154.84,0,0,0-7.87-19.69,156.94,156.94,0,0,0,7.57-19.4q2.38.69,4.62,1.46c14.38,4.95,23.15,12.27,23.15,17.91,0,6-9.47,13.81-24.86,18.91Zm-6.38,12.64c1.56,7.86,1.78,15,.75,20.52-.93,5-2.79,8.31-5.09,9.64-4.9,2.84-15.37-.85-26.67-10.57-1.29-1.11-2.6-2.3-3.91-3.56a156.09,156.09,0,0,0,13-16.54,155.33,155.33,0,0,0,21.05-3.25c.32,1.28.6,2.54.84,3.76ZM80.34,161c-4.79,1.69-8.6,1.74-10.9.41-4.9-2.82-6.94-13.74-4.16-28.38q.5-2.59,1.13-5.16a155.91,155.91,0,0,0,21,3,161.52,161.52,0,0,0,13.34,16.49c-1,.93-2,1.84-3,2.72-6,5.27-12.08,9-17.4,10.89ZM57.92,118.65c-7.58-2.59-13.84-6-18.13-9.63-3.85-3.3-5.8-6.58-5.8-9.24C34,94.12,42.43,86.9,56.5,82q2.66-.93,5.35-1.69a159.72,159.72,0,0,0,7.58,19.63,161.1,161.1,0,0,0-7.67,19.91Q59.83,119.3,57.92,118.65ZM65.44,67.5c-2.93-14.93-1-26.19,3.9-29,5.2-3,16.69,1.28,28.81,12,.77.69,1.55,1.41,2.33,2.16A161.51,161.51,0,0,0,87.24,69.06,164.24,164.24,0,0,0,66.5,72.28c-.39-1.58-.75-3.18-1.06-4.78Zm75-29.21c5.2,3,7.22,15.1,4,31-.22,1-.45,2.07-.7,3.09a159.13,159.13,0,0,0-20.78-3.28,156.74,156.74,0,0,0-13.14-16.4q1.74-1.68,3.57-3.27c11.48-10,22.2-13.93,27.09-11.11Z" transform="translate(-10.39 -2.83)"/><path class="cls-5" d="M151.1,118.78q-1.28.42-2.61.81a155.74,155.74,0,0,0-7.87-19.69,155.25,155.25,0,0,0,7.56-19.4c1.59.46,3.14,1,4.62,1.46,14.39,5,23.16,12.27,23.16,17.91,0,6-9.48,13.81-24.86,18.91Zm-6.38,12.64c1.55,7.86,1.77,15,.74,20.52-.92,5-2.78,8.31-5.08,9.64-4.9,2.84-15.38-.85-26.67-10.57q-2-1.66-3.91-3.56a156.09,156.09,0,0,0,13-16.54,155.33,155.33,0,0,0,21-3.25c.31,1.28.59,2.54.84,3.76ZM80.17,161.09c-4.79,1.69-8.6,1.74-10.9.41-4.91-2.82-6.94-13.74-4.16-28.38.33-1.73.7-3.45,1.13-5.16a155.75,155.75,0,0,0,20.94,3,162.88,162.88,0,0,0,13.34,16.49c-1,.93-2,1.84-3,2.72-6,5.27-12.07,9-17.39,10.89ZM57.75,118.74c-7.58-2.59-13.84-6-18.13-9.63-3.85-3.3-5.8-6.58-5.8-9.24,0-5.66,8.44-12.88,22.51-17.78q2.66-.93,5.35-1.69A158,158,0,0,0,69.25,100a162.71,162.71,0,0,0-7.67,19.91C60.3,119.57,59,119.17,57.75,118.74Zm7.51-51.15c-2.92-14.93-1-26.19,3.9-29,5.2-3,16.7,1.28,28.82,12,.77.69,1.55,1.41,2.33,2.16A156.71,156.71,0,0,0,87.07,69.15a164,164,0,0,0-20.74,3.22c-.4-1.58-.75-3.18-1.07-4.79Z" transform="translate(-10.39 -2.83)"/><circle class="cls-6" cx="94.5" cy="97.17" r="9"/><path class="cls-2" d="M104.89,92a8,8,0,1,1-8,8,8,8,0,0,1,8-8m0-2a10,10,0,1,0,10,10,10,10,0,0,0-10-10Z" transform="translate(-10.39 -2.83)"/><text class="cls-7" transform="translate(246 97.34)">Acorn</text><text class="cls-8" transform="translate(246 151.01)">Configuration API</text></g></svg>