<svg xmlns="http://www.w3.org/2000/svg" viewBox="0 0 200 200"><defs><style>.cls-1{fill:#f2f2f2;stroke:#4b592d;}.cls-1,.cls-4{stroke-miterlimit:10;}.cls-2,.cls-4{fill:#fff;}.cls-3{fill:#bfbcba;}.cls-4{stroke:#8c8074;stroke-width:3px;}.cls-5{fill:#9fbf5a;}</style></defs><g id="Layer_3" data-name="Layer 3"><rect class="cls-1" x="2.5" y="2.5" width="195" height="195" rx="19.68"/></g><g id="Layer_7" data-name="Layer 7"><circle class="cls-2" cx="100" cy="100" r="93.5"/><path class="cls-3" d="M100,7.5A92.5,92.5,0,1,1,7.5,100,92.5,92.5,0,0,1,100,7.5m0-2A94.5,94.5,0,1,0,194.5,100,94.6,94.6,0,0,0,100,5.5Z"/><path class="cls-4" d="M12.5,99.72c0,13.21,12.91,25.55,33.25,32.51-4.06,20.45-.73,36.93,10.41,43.36,11.45,6.6,28.51,2,44.7-12.12,15.78,13.58,31.72,18.92,42.85,12.48,11.44-6.62,14.92-24.22,10.74-45.32,21.2-7,33.05-17.52,33.05-30.91,0-12.91-12.93-24.08-33-31,4.49-22,.69-38.05-10.91-44.74-11.19-6.45-27.32-.83-43.33,13.11C83.6,22.31,67.62,17.79,56,24.5,44.86,31,41.67,47.75,45.75,68.58,26.09,75.44,12.5,86.86,12.5,99.72Z"/><path class="cls-3" d="M150.25,75.59c-1.66-.57-3.32-1.09-5-1.57.27-1.14.53-2.28.77-3.42,3.79-18.38,1.31-33.19-7.15-38.07-8.1-4.67-21.36.2-34.75,11.86q-2,1.72-3.87,3.55c-.85-.81-1.71-1.6-2.58-2.38-14-12.46-28.1-17.71-36.55-12.82-8.1,4.69-10.5,18.61-7.09,36,.34,1.73.72,3.44,1.15,5.15-2,.56-3.91,1.17-5.75,1.81-16.46,5.73-27,14.73-27,24,0,9.63,11.28,19.29,28.41,25.15,1.39.47,2.8.91,4.21,1.31q-.69,2.76-1.22,5.55c-3.25,17.12-.72,30.72,7.36,35.38,8.35,4.81,22.35-.14,36-12.06,1.07-.94,2.16-1.94,3.24-3,1.36,1.32,2.77,2.6,4.2,3.84,13.21,11.36,26.26,15.95,34.33,11.28,8.33-4.83,11-19.43,7.52-37.2-.26-1.35-.58-2.74-.93-4.15,1-.29,1.95-.59,2.89-.9,17.82-5.91,29.41-15.45,29.41-25.21,0-9.36-10.85-18.41-27.63-24.19Z"/><path class="cls-2" d="M146.38,118.69q-1.27.42-2.61.81a154.84,154.84,0,0,0-7.87-19.69,155.37,155.37,0,0,0,7.57-19.4q2.39.69,4.62,1.46c14.38,4.95,23.15,12.27,23.15,17.91,0,6-9.47,13.81-24.86,18.91ZM140,131.33c1.56,7.86,1.78,15,.75,20.52-.93,5-2.79,8.31-5.09,9.64-4.9,2.84-15.37-.85-26.67-10.57-1.29-1.11-2.6-2.3-3.91-3.56a156.09,156.09,0,0,0,13-16.54,155.33,155.33,0,0,0,21-3.25c.32,1.28.6,2.54.84,3.76ZM75.45,161c-4.79,1.69-8.6,1.74-10.9.41-4.9-2.82-6.94-13.74-4.16-28.38q.49-2.59,1.13-5.16a155.91,155.91,0,0,0,20.95,3,161.52,161.52,0,0,0,13.34,16.49c-1,.93-2,1.84-3,2.72-6,5.27-12.07,9-17.4,10.89ZM53,118.65c-7.58-2.59-13.83-6-18.12-9.63-3.86-3.3-5.81-6.58-5.81-9.24,0-5.66,8.44-12.88,22.51-17.78q2.66-.93,5.35-1.69a159.72,159.72,0,0,0,7.58,19.63,161.1,161.1,0,0,0-7.67,19.91Q54.94,119.3,53,118.65ZM60.55,67.5c-2.92-14.93-1-26.19,3.9-29,5.2-3,16.69,1.28,28.81,12,.78.69,1.55,1.41,2.33,2.16A161.51,161.51,0,0,0,82.35,69.06a163.79,163.79,0,0,0-20.73,3.22c-.4-1.58-.76-3.18-1.07-4.78Zm67,16.55c-1.52-2.62-3.1-5.22-4.73-7.77,5,.62,9.71,1.46,14.17,2.47a142.59,142.59,0,0,1-5,13.39Q129.9,88,127.59,84.05ZM100.25,57.42a141.2,141.2,0,0,1,9.14,11q-9.18-.43-18.37,0C94,64.48,97.14,60.78,100.25,57.42ZM72.73,84.09q-2.28,4-4.38,8a143.2,143.2,0,0,1-4.94-13.45c4.43-1,9.16-1.8,14.09-2.42Q75,80.13,72.73,84.09Zm4.91,39.68a143.13,143.13,0,0,1-14.32-2.3c1.37-4.43,3.06-9,5-13.72q2.12,4.06,4.41,8T77.64,123.77Zm22.79,18.84c-3.15-3.4-6.28-7.15-9.35-11.19q4.47.17,9.09.17t9.39-.2A143.05,143.05,0,0,1,100.43,142.61Zm31.69-35.1a139.2,139.2,0,0,1,5.22,13.67,139.17,139.17,0,0,1-14.5,2.47c1.64-2.6,3.24-5.24,4.77-7.91s3.07-5.45,4.51-8.23Zm-10.26,4.92q-3.52,6.13-7.45,12c-4.62.33-9.38.5-14.24.5s-9.54-.16-14.07-.45q-4-5.88-7.59-12.05T71.88,99.94q3.06-6.39,6.61-12.53h0Q82,81.27,86,75.42c4.62-.35,9.36-.54,14.15-.54s9.56.19,14.18.54q4,5.85,7.49,12t6.7,12.47q-3.12,6.41-6.68,12.58Zm13.7-74.14c5.2,3,7.23,15.1,4,31-.22,1-.45,2.07-.7,3.09A159.13,159.13,0,0,0,118,69.07a156.74,156.74,0,0,0-13.14-16.4c1.16-1.12,2.36-2.21,3.57-3.27,11.48-10,22.2-13.93,27.09-11.11Z"/><path class="cls-5" d="M100.17,85.9A13.88,13.88,0,1,1,86.3,99.78,13.88,13.88,0,0,1,100.17,85.9"/></g></svg>