<svg xmlns="http://www.w3.org/2000/svg" viewBox="0 0 200 200"><defs><style>.cls-1,.cls-5{fill:#fbfbfb;}.cls-2{fill:#c3c3cc;}.cls-3{fill:#cac9d0;stroke-width:0.25px;}.cls-3,.cls-4,.cls-5{stroke:#c3c3cc;stroke-miterlimit:10;}.cls-4{fill:#b1b6be;}.cls-6{fill:#e3e3e3;}</style></defs><g id="Layer_7" data-name="Layer 7"><circle class="cls-1" cx="99.4" cy="97.11" r="93.5"/><path class="cls-2" d="M99.4,4.61A92.5,92.5,0,1,1,6.9,97.11,92.5,92.5,0,0,1,99.4,4.61m0-2a94.5,94.5,0,1,0,94.5,94.5A94.62,94.62,0,0,0,99.4,2.61Z"/><path class="cls-3" d="M37.63,35c-9.34,9.34-8.94,27.19.53,46.49-17.34,11.59-26.64,25.61-23.3,38,3.42,12.76,18.72,21.59,40.17,23,1.56,20.76,9,35.82,21.48,39.13,12.77,3.41,27.68-6.58,39.64-24.45,19.94,10,35.76,11,45.23,1.51,9.12-9.13,7.88-26.17-1.43-45.25,18.71-12.35,27.39-26.42,23.92-39.35-3.35-12.47-18.73-19.9-39.91-21.37C142.64,30.5,134.54,16,121.6,12.56,109.13,9.24,95,18.85,83.16,36.46,64.41,27.41,46.72,25.87,37.63,35Z"/><path class="cls-4" d="M117.64,44.47q-2.36,1.14-4.65,2.42c-.61-1-1.23-2-1.87-3-10.32-15.68-22.54-24.4-32-21.87-9,2.43-15,15.25-16.2,33-.12,1.75-.19,3.5-.22,5.25-1.17,0-2.34.07-3.5.14-18.74,1.11-32.4,7.35-34.92,16.78-2.41,9,5.74,20.58,20.47,30.49,1.46,1,2.95,1.92,4.45,2.83-1,1.8-1.94,3.59-2.78,5.34-7.58,15.69-8.66,29.48-2.06,36.08,6.81,6.81,21.62,5.66,37.88-2.31,1.31-.65,2.61-1.33,3.9-2.05,1,1.63,2,3.22,3.06,4.79,9.8,14.4,21.21,22.22,30.22,19.8,9.3-2.5,15.71-15.89,16.92-34,.1-1.42.15-2.9.18-4.4,1.9,0,3.79-.12,5.68-.26,17.38-1.31,29.85-7.28,32.25-16.3,2.48-9.3-5.93-21.54-21-31.62-1.15-.77-2.35-1.53-3.59-2.28.49-.9,1-1.79,1.4-2.68,8.43-16.77,9.87-31.72,3-38.62-6.61-6.62-20.69-5.35-36.64,2.44Z"/><path class="cls-5" d="M145.61,115.89q-1.28.42-2.61.81A154.73,154.73,0,0,0,135.13,97a155.49,155.49,0,0,0,7.57-19.41c1.59.47,3.13,1,4.62,1.46C161.7,84,170.47,91.34,170.47,97c0,6-9.47,13.81-24.86,18.91Zm-6.38,12.65c1.56,7.85,1.78,15,.75,20.51-.93,5-2.79,8.31-5.09,9.65-4.9,2.83-15.37-.85-26.67-10.57-1.29-1.12-2.6-2.31-3.91-3.57a156.09,156.09,0,0,0,13-16.54,157,157,0,0,0,21-3.24c.32,1.28.6,2.53.84,3.76ZM74.68,158.21c-4.78,1.69-8.6,1.73-10.9.41-4.9-2.83-6.94-13.75-4.16-28.39q.5-2.59,1.13-5.16a155.85,155.85,0,0,0,21,3A161.36,161.36,0,0,0,95,144.59c-1,.93-2,1.84-3,2.73-6,5.27-12.07,9-17.4,10.89ZM52.26,115.85c-7.58-2.59-13.83-6-18.12-9.63-3.86-3.3-5.81-6.58-5.81-9.24,0-5.66,8.44-12.87,22.51-17.78q2.65-.92,5.35-1.68a159.6,159.6,0,0,0,7.58,19.62,161.1,161.1,0,0,0-7.67,19.91Q54.17,116.5,52.26,115.85ZM59.78,64.7c-2.92-14.93-1-26.19,3.9-29,5.2-3,16.69,1.28,28.81,12,.78.68,1.55,1.4,2.33,2.15A161.51,161.51,0,0,0,81.58,66.26a162,162,0,0,0-20.73,3.23c-.4-1.59-.76-3.19-1.07-4.79Zm75-29.21c5.2,3,7.23,15.1,4,31-.22,1-.45,2.06-.7,3.09a159.09,159.09,0,0,0-20.78-3.29,155.54,155.54,0,0,0-13.14-16.39c1.16-1.13,2.36-2.22,3.57-3.28,11.48-10,22.2-13.93,27.09-11.11Z"/><path class="cls-5" d="M145.61,115.81c-.85.29-1.72.56-2.61.82a154.25,154.25,0,0,0-7.87-19.69,155.37,155.37,0,0,0,7.57-19.4q2.38.69,4.62,1.46c14.38,5,23.15,12.27,23.15,17.91,0,6-9.47,13.81-24.86,18.9Zm-6.38,12.65c1.56,7.86,1.78,15,.75,20.51-.93,5-2.79,8.32-5.09,9.65-4.9,2.84-15.37-.85-26.67-10.57-1.29-1.11-2.6-2.3-3.91-3.56a156.09,156.09,0,0,0,13-16.54,155.33,155.33,0,0,0,21-3.25c.32,1.28.6,2.54.84,3.76ZM74.68,158.13c-4.78,1.69-8.6,1.74-10.9.41-4.9-2.82-6.94-13.74-4.16-28.38q.5-2.59,1.13-5.16a155.91,155.91,0,0,0,21,3A162.62,162.62,0,0,0,95,144.52c-1,.93-2,1.84-3,2.72-6,5.27-12.07,9-17.4,10.89ZM52.26,115.78c-7.58-2.59-13.83-6-18.12-9.63-3.86-3.3-5.81-6.58-5.81-9.24,0-5.66,8.44-12.88,22.51-17.78q2.65-.93,5.35-1.69a159.72,159.72,0,0,0,7.58,19.63A161.1,161.1,0,0,0,56.1,117Q54.17,116.43,52.26,115.78Zm7.52-51.15c-2.92-14.93-1-26.19,3.9-29,5.2-3,16.69,1.28,28.81,12,.78.69,1.55,1.41,2.33,2.16A159.32,159.32,0,0,0,81.58,66.19a163.79,163.79,0,0,0-20.73,3.22c-.4-1.58-.76-3.18-1.07-4.79Z"/><circle class="cls-6" cx="99.4" cy="97.11" r="9"/><path class="cls-2" d="M99.4,89.11a8,8,0,1,1-8,8,8,8,0,0,1,8-8m0-2a10,10,0,1,0,10,10,10,10,0,0,0-10-10Z"/></g></svg>