<svg xmlns="http://www.w3.org/2000/svg" viewBox="0 0 200 200"><defs><style>.cls-1{fill:#8c8074;}.cls-2{fill:#412f29;}.cls-3{fill:#8e715e;}.cls-3,.cls-4{fill-rule:evenodd;}.cls-4{fill:#e4cda9;}</style></defs><g id="Layer_7" data-name="Layer 7"><path class="cls-1" d="M100,3.73A96.27,96.27,0,1,1,3.73,100,96.27,96.27,0,0,1,100,3.73m0-2A98.27,98.27,0,1,0,198.27,100,98.39,98.39,0,0,0,100,1.73Z"/><path class="cls-2" d="M113.42,174.62c-16.65,1.85-31.88,1-44.4-5.07s-22.44-17.38-28-36.23a2.57,2.57,0,0,1,1.75-3.18,2.54,2.54,0,0,1,1-.08h0c16.19,2,30.67,5.88,42.79,12.39s22.07,15.81,28.78,28.42a2.55,2.55,0,0,1-2,3.75Zm-42.17-9.7c10.57,5.1,23.47,6.18,37.69,5A63.6,63.6,0,0,0,84.19,147c-10.52-5.65-23-9.23-37-11.27,5.19,15,13.53,24.16,24,29.23"/><path class="cls-2" d="M98.72,147.66a68.73,68.73,0,0,1,8.81,7.87,49.74,49.74,0,0,1,8.4,12.27c11-4.66,20.25-10.56,26.81-18.28,6.29-7.39,10.2-16.51,11-27.86a236.27,236.27,0,0,0-30.14,11.5,151.28,151.28,0,0,0-24.9,14.5m5,11.37a73,73,0,0,0-10.85-9.28h0a2.51,2.51,0,0,1-.52-.51,2.57,2.57,0,0,1,.46-3.6,153.5,153.5,0,0,1,28.59-17.12,247.89,247.89,0,0,1,34.29-12.83h0a2.47,2.47,0,0,1,.77-.11,2.57,2.57,0,0,1,2.53,2.59c-.22,14.32-4.7,25.63-12.39,34.67s-18.23,15.51-30.94,20.59l-.08,0a2.58,2.58,0,0,1-3.37-1.36A45,45,0,0,0,103.77,159"/><path class="cls-2" d="M92.92,143.69l11.36-6.85A86.38,86.38,0,0,0,78.1,120.59,138.83,138.83,0,0,0,48,112.52l6.78,18.93a120.06,120.06,0,0,1,18.49,4.26,133.67,133.67,0,0,1,19.7,8m16.89-4.18-15.38,9.27a2.59,2.59,0,0,1-2.56.14,130.41,130.41,0,0,0-20.18-8.31,115.9,115.9,0,0,0-19-4.27,2.57,2.57,0,0,1-2.25-1.71L41.66,110.2h0a2.58,2.58,0,0,1,2.77-3.41c12.53,1.77,24.53,4.53,35.6,9a90.4,90.4,0,0,1,30.14,19.55,2.55,2.55,0,0,1-.36,4.14"/><path class="cls-2" d="M89.82,119.61c3.11,1.8,6.13,3.69,9,5.73a62.51,62.51,0,0,1,9.4,8.08,111.46,111.46,0,0,1,13.3-7.23,108.38,108.38,0,0,1,15.64-5.75l6.23-23a165.82,165.82,0,0,0-27.61,8.78,178.24,178.24,0,0,0-25.95,13.41m6,9.91A123.54,123.54,0,0,0,83.67,122a2.52,2.52,0,0,1-1-.88,2.58,2.58,0,0,1,.75-3.56,185.33,185.33,0,0,1,30.36-16.15,173.6,173.6,0,0,1,32.66-10h0a2.45,2.45,0,0,1,1.17,0,2.57,2.57,0,0,1,1.82,3.14l-7.71,28.49a2.57,2.57,0,0,1-1.82,1.83,102.5,102.5,0,0,0-16.27,5.84,106.65,106.65,0,0,0-14.45,8.06h0a2.56,2.56,0,0,1-3.37-.47,55.22,55.22,0,0,0-10-8.92"/><path class="cls-2" d="M83.57,120.84,81,119.76c-6.26-2.61-11.64-4.85-20.55-6.14a2.56,2.56,0,0,1-2.09-1.76L48.91,84.29A2.57,2.57,0,0,1,50.52,81a2.5,2.5,0,0,1,.89-.13c11.66-.37,22.24,1.25,31.48,5.32a53.92,53.92,0,0,1,23.64,20.27,2.58,2.58,0,0,1-.72,3.56,2.81,2.81,0,0,1-.58.28,109.51,109.51,0,0,0-10.57,4.46,34.13,34.13,0,0,0-8.23,5.58,2.58,2.58,0,0,1-2.86.47M82.94,115l1.2.5a40.65,40.65,0,0,1,8.2-5.31c2.54-1.28,5.24-2.42,8.06-3.53A48.36,48.36,0,0,0,80.82,90.92C73.18,87.56,64.48,86,54.91,86l7.8,22.8c8.63,1.4,14,3.65,20.23,6.24m22.29-4.69-3-1a2.56,2.56,0,0,0,3,1"/><path class="cls-2" d="M92.89,90.52a56.83,56.83,0,0,1,6.29,6,43,43,0,0,1,5.43,7.54l16.85-6.3a86.68,86.68,0,0,0,7-16,91.85,91.85,0,0,0,3.21-13.44,103.48,103.48,0,0,0-20.7,8.85,92.3,92.3,0,0,0-18,13.3m2.45,9.42a54.28,54.28,0,0,0-7.89-7.17h0a1.86,1.86,0,0,1-.26-.23,2.56,2.56,0,0,1,0-3.63,98.39,98.39,0,0,1,21.2-16.16,111.29,111.29,0,0,1,25.68-10.44,2.66,2.66,0,0,1,1-.07,2.57,2.57,0,0,1,2.24,2.87,99.94,99.94,0,0,1-4,18.27,91.28,91.28,0,0,1-7.81,17.67,2.56,2.56,0,0,1-1.37,1.19l-19.65,7.35a2.57,2.57,0,0,1-3.4-1.21,37.29,37.29,0,0,0-5.73-8.44"/><path class="cls-2" d="M71.8,80.79a46.92,46.92,0,0,1,8.54,2.34,38.94,38.94,0,0,1,6.31,3.1,38.41,38.41,0,0,1,6.13-6.4,31.89,31.89,0,0,1,6.54-4.18c-4.84-5.49-10.06-8.87-15.6-10.43S72,63.89,65.64,65.68Zm6.71,7.13a42.54,42.54,0,0,0-8.93-2.29h0a2.55,2.55,0,0,1-2-1.57L59.82,65h0a.58.58,0,0,0,0-.14,2.58,2.58,0,0,1,1.61-3.26c8.34-2.83,16.28-3.45,23.72-1.35S99.31,67.1,105.42,75a2.4,2.4,0,0,1,.52.89,2.57,2.57,0,0,1-1.6,3.27A26.75,26.75,0,0,0,96,83.79a34.76,34.76,0,0,0-6.58,7.33l-.09.14a2.57,2.57,0,0,1-3.59.57,31.61,31.61,0,0,0-7.26-3.91"/><path class="cls-2" d="M95.47,64.54a51.71,51.71,0,0,1,4.47,4.25,34.58,34.58,0,0,1,3.84,4.94,59.53,59.53,0,0,1,8.54-4.83A62.15,62.15,0,0,1,122,65.41l6.88-14.85A114.69,114.69,0,0,0,111.76,56a99.74,99.74,0,0,0-16.29,8.5m.71,7.73a53.13,53.13,0,0,0-6.59-5.88h0a2.71,2.71,0,0,1-.55-.57,2.57,2.57,0,0,1,.64-3.57,105,105,0,0,1,20.13-11,123.42,123.42,0,0,1,23.09-6.86h0a2.53,2.53,0,0,1,1.57.19,2.56,2.56,0,0,1,1.26,3.4L126.2,68.6a2.56,2.56,0,0,1-1.75,1.49,57.13,57.13,0,0,0-10,3.48,54.78,54.78,0,0,0-9.86,5.87,2.5,2.5,0,0,1-.54.35,2.57,2.57,0,0,1-3.43-1.2,26.1,26.1,0,0,0-4.44-6.32"/><path class="cls-2" d="M83.15,57.42a38.38,38.38,0,0,1,4.52,1.93,27.38,27.38,0,0,1,3.77,2.29,51,51,0,0,1,7.31-6,58.84,58.84,0,0,1,8.63-4.85,54.41,54.41,0,0,0-3.94-10.3,46.78,46.78,0,0,0-6.32-9.42A88.12,88.12,0,0,0,89,43.91a115.57,115.57,0,0,0-5.88,13.51m2.18,6.51a38,38,0,0,0-6.22-2.45h0l-.08,0a2.56,2.56,0,0,1-1.59-3.26,125.55,125.55,0,0,1,7-16.63,93,93,0,0,1,10.47-16,3.23,3.23,0,0,1,.25-.29,2.57,2.57,0,0,1,3.63.06A52.55,52.55,0,0,1,108,38.13a61.34,61.34,0,0,1,4.84,13.37,2.58,2.58,0,0,1-1.47,3.12,55.45,55.45,0,0,0-9.76,5.24,46.55,46.55,0,0,0-8.09,7h0a2.56,2.56,0,0,1-3.63.15,20.37,20.37,0,0,0-4.58-3.09"/><path class="cls-3" d="M84.19,147c-10.52-5.64-23-9.23-37-11.27,5.19,15,13.53,24.16,24,29.23s23.47,6.18,37.69,5A63.6,63.6,0,0,0,84.19,147"/><path class="cls-3" d="M123.62,133.16a151.28,151.28,0,0,0-24.9,14.5,68.73,68.73,0,0,1,8.81,7.87,49.74,49.74,0,0,1,8.4,12.27c11-4.66,20.25-10.56,26.81-18.28,6.29-7.39,10.2-16.5,11-27.86a236.85,236.85,0,0,0-30.14,11.5"/><path class="cls-3" d="M108.21,133.42a111.46,111.46,0,0,1,13.3-7.23,108.38,108.38,0,0,1,15.64-5.75l6.23-23a167.17,167.17,0,0,0-27.62,8.78,178.65,178.65,0,0,0-25.94,13.41c3.11,1.8,6.13,3.69,9,5.73a62.51,62.51,0,0,1,9.4,8.08"/><path class="cls-3" d="M104.28,136.84A86.38,86.38,0,0,0,78.1,120.59,138.83,138.83,0,0,0,48,112.52l6.78,18.93a121.24,121.24,0,0,1,18.49,4.26,133.67,133.67,0,0,1,19.7,8Z"/><path class="cls-3" d="M84.14,115.52a40.65,40.65,0,0,1,8.2-5.31c2.48-1.25,5.12-2.37,7.88-3.46-.24-.43-.49-.86-.75-1.28A48.17,48.17,0,0,0,80.82,90.92C73.18,87.56,64.48,86,54.91,86l7.8,22.8c8.63,1.4,14,3.65,20.23,6.24Z"/><path class="cls-3" d="M99.18,96.52a43.66,43.66,0,0,1,4.53,6c.37.47.73.94,1.09,1.43l16.66-6.23a86,86,0,0,0,7-16,91.85,91.85,0,0,0,3.21-13.44,103.48,103.48,0,0,0-20.7,8.85,92.3,92.3,0,0,0-18,13.3,56.83,56.83,0,0,1,6.29,6"/><path class="cls-3" d="M86.65,86.24a38.1,38.1,0,0,1,6.13-6.41,32.15,32.15,0,0,1,6.22-4,27.72,27.72,0,0,0-1.91-2.51,31.21,31.21,0,0,0-13.38-8.07c-5.62-1.59-11.67-1.33-18.07.46L71.8,80.79a46.92,46.92,0,0,1,8.54,2.34,38.17,38.17,0,0,1,6.31,3.11"/><path class="cls-3" d="M99.94,68.79c.28.3.54.6.8.89,1.17,1.16,2.32,2.41,3.45,3.77a59.27,59.27,0,0,1,8.13-4.55A62.15,62.15,0,0,1,122,65.41l6.88-14.85A114.69,114.69,0,0,0,111.76,56a100.89,100.89,0,0,0-15.11,7.75c-.34.3-.66.6-1,.91a50.5,50.5,0,0,1,4.28,4.09"/><path class="cls-3" d="M93.49,59.71a52.45,52.45,0,0,1,5.26-4.09,58.84,58.84,0,0,1,8.63-4.85,54.41,54.41,0,0,0-3.94-10.3,46.78,46.78,0,0,0-6.32-9.42A88.12,88.12,0,0,0,89,43.91a115.57,115.57,0,0,0-5.88,13.51,38.38,38.38,0,0,1,4.52,1.93,28.59,28.59,0,0,1,3.34,2c.82-.56,1.65-1.1,2.48-1.63"/><path class="cls-4" d="M84.19,147c-10.52-5.64-23-9.23-37-11.27,3.77,10.88,9.19,18.69,15.9,24.09a56.32,56.32,0,0,1-10.52-18.91c14,2,26.47,5.62,37,11.27a69.17,69.17,0,0,1,12.26,8.32A66.4,66.4,0,0,0,84.19,147"/><path class="cls-4" d="M123.62,133.16q-2.66,1.25-5.23,2.55c-1.63.93-3.44,1.67-5,2.66s-3.19,1.8-4.74,2.73h0l-9.92,6.56a57.15,57.15,0,0,1,4.57,3.75C117,141.52,137,133.05,153,127.65a37.56,37.56,0,0,0,.75-6q-5.72,1.77-11.17,3.73l-.06.23c-1,.29-2.06.6-3.08.92-5.5,2-10.79,4.25-15.83,6.62"/><path class="cls-4" d="M142.17,101.85l1.2-4.43c-18,4-39.19,10.81-53.55,22.19,2.15,1.26,2.53,1.4,4.56,2.76,12.76-7.79,33.34-16.58,47.79-20.52"/><path class="cls-4" d="M104.28,136.84A86.38,86.38,0,0,0,78.1,120.59,138.83,138.83,0,0,0,48,112.52l6.78,18.93c1.25.18,2.49.39,3.75.62L53.33,117.7a139,139,0,0,1,30.15,8.06,89.68,89.68,0,0,1,20.31,11.38Z"/><path class="cls-4" d="M97.36,103a47.75,47.75,0,0,0-16.54-12C73.18,87.56,64.48,86,54.91,86l7.8,22.8c1.36.22,2.64.46,3.86.72L60.29,91.16c9.57,0,18.27,1.58,25.91,4.94A47.09,47.09,0,0,1,97.36,103"/><path class="cls-4" d="M130.81,72.71a31.9,31.9,0,0,0,.81-4.34c-1.28.4-2.53.81-3.78,1.24a75.64,75.64,0,0,0-18.63,8.6A92.64,92.64,0,0,0,92.89,90.52a24.68,24.68,0,0,1,3.68,3.28c6.09-5.73,26.07-18,34.24-21.09"/><path class="cls-4" d="M98.5,75.07c-.44-.6-.91-1.19-1.41-1.78a31.21,31.21,0,0,0-13.38-8.07c-5.62-1.59-11.67-1.33-18.07.46L71.8,80.79c1.23.21,2.42.47,3.59.77L71,70.85c6.4-1.78,12.45-2,18.07-.45a29,29,0,0,1,9.41,4.67"/><path class="cls-4" d="M98.21,67c3.22-3.08,22.65-10.62,28.91-12.63l1.77-3.83a114,114,0,0,0-16.21,5.11c-3.16,1.45-13.05,5.47-15.29,7.46-.58.36-1.35,1-1.92,1.41Z"/><path class="cls-4" d="M99.53,34.09c-1.3-2.13-.65-1-2.41-3A88.12,88.12,0,0,0,89,43.91a115.57,115.57,0,0,0-5.88,13.51c1.62.58-.83-.77.56-.06.6.31,1.17.62,1.73,1,.45-3,11.6-22.67,14.09-24.22"/></g></svg>