<svg xmlns="http://www.w3.org/2000/svg" viewBox="0 0 200 200"><defs><style>.cls-1{fill:#8c8074;}.cls-2,.cls-4,.cls-5{fill:#594740;}.cls-2{stroke:#f2f2f2;stroke-width:0.25px;}.cls-2,.cls-3,.cls-4{stroke-miterlimit:10;}.cls-3{fill:#a68572;}.cls-3,.cls-4{stroke:#fff7ff;}.cls-6{fill:#fff7ff;}</style></defs><g id="Layer_7" data-name="Layer 7"><path class="cls-1" d="M100,4.17A95.83,95.83,0,1,1,4.17,100,95.82,95.82,0,0,1,100,4.17m0-2A97.83,97.83,0,1,0,197.83,100,97.93,97.93,0,0,0,100,2.17Z"/><path class="cls-2" d="M36.11,35.69c-9.69,9.68-9.27,28.18.54,48.18-18,12-27.59,26.52-24.14,39.39,3.55,13.22,19.39,22.37,41.62,23.86,1.61,21.51,9.38,37.11,22.25,40.54,13.23,3.53,28.68-6.81,41.07-25.33,20.66,10.4,37.05,11.37,46.86,1.56,9.46-9.45,8.17-27.11-1.48-46.87,19.39-12.8,28.38-27.37,24.78-40.77-3.46-12.92-19.4-20.62-41.34-22.14-1.37-23-9.76-38-23.17-41.63C110.18,9,95.55,19,83.27,37.24,63.85,27.86,45.52,26.27,36.11,35.69Z"/><path class="cls-3" d="M119.05,45.41q-2.44,1.19-4.82,2.51c-.63-1-1.27-2.06-1.94-3.07C101.6,28.61,88.94,19.57,79.17,22.2,69.81,24.71,63.66,38,62.39,56.34c-.12,1.81-.2,3.63-.23,5.44-1.21,0-2.42.07-3.63.14C39.12,63.08,25,69.54,22.36,79.31c-2.5,9.37,5.94,21.32,21.2,31.59,1.52,1,3,2,4.62,2.93-1,1.87-2,3.72-2.89,5.54-7.85,16.25-9,30.54-2.13,37.37,7.05,7.06,22.39,5.87,39.24-2.39,1.36-.68,2.71-1.38,4-2.12,1,1.68,2.07,3.34,3.17,5,10.16,14.92,22,23,31.31,20.52,9.64-2.59,16.28-16.47,17.53-35.2.1-1.48.16-3,.19-4.56,2,0,3.93-.13,5.88-.27,18-1.35,30.93-7.55,33.42-16.88,2.57-9.64-6.14-22.33-21.74-32.77q-1.78-1.19-3.72-2.36c.5-.93,1-1.86,1.45-2.77,8.73-17.38,10.23-32.86,3.08-40-6.86-6.85-21.43-5.54-38,2.53Z"/><path class="cls-4" d="M148.06,119.36c-.88.29-1.79.57-2.71.84a162,162,0,0,0-8.15-20.39A161.42,161.42,0,0,0,145,79.71c1.65.47,3.25,1,4.79,1.51,14.9,5.13,24,12.71,24,18.55,0,6.23-9.82,14.31-25.75,19.59Zm-6.62,13.1c1.61,8.14,1.84,15.5.78,21.25-1,5.17-2.89,8.62-5.28,10-5.07,2.94-15.92-.88-27.62-11q-2-1.74-4-3.69a162.28,162.28,0,0,0,13.49-17.14,160.63,160.63,0,0,0,21.81-3.36c.33,1.32.62,2.62.87,3.89ZM74.57,163.2c-5,1.75-8.91,1.8-11.3.43-5.08-2.93-7.19-14.24-4.31-29.41.34-1.79.74-3.57,1.18-5.34A164.08,164.08,0,0,0,81.84,132a166.12,166.12,0,0,0,13.82,17.07c-1,1-2,1.91-3.07,2.83-6.25,5.46-12.51,9.33-18,11.28ZM51.34,119.32c-7.85-2.68-14.34-6.17-18.78-10-4-3.42-6-6.81-6-9.57,0-5.86,8.74-13.34,23.32-18.42q2.75-1,5.54-1.75a165.4,165.4,0,0,0,7.85,20.34,168.51,168.51,0,0,0-7.95,20.62C54,120.18,52.65,119.77,51.34,119.32Zm7.79-53c-3-15.46-1-27.13,4-30C68.55,33.15,80.46,37.59,93,48.74c.8.71,1.61,1.46,2.41,2.23A164,164,0,0,0,81.72,68a168,168,0,0,0-21.49,3.34c-.41-1.65-.78-3.3-1.1-5Zm77.71-30.26c5.39,3.11,7.49,15.65,4.1,32.1-.22,1.07-.46,2.13-.72,3.2A163.05,163.05,0,0,0,118.69,68a161.74,161.74,0,0,0-13.61-17c1.2-1.16,2.44-2.3,3.7-3.4,11.89-10.34,23-14.43,28.06-11.51Z"/><path class="cls-4" d="M147.88,119.45c-.88.29-1.79.57-2.71.85A162.72,162.72,0,0,0,137,99.9a161.42,161.42,0,0,0,7.83-20.1q2.47.72,4.79,1.51c14.9,5.13,24,12.71,24,18.56,0,6.22-9.82,14.3-25.75,19.58Zm-6.62,13.11c1.61,8.13,1.84,15.49.78,21.25-1,5.17-2.89,8.61-5.27,10-5.08,2.94-15.93-.88-27.63-11-1.35-1.15-2.7-2.39-4-3.69A161.26,161.26,0,0,0,118.58,132a160.63,160.63,0,0,0,21.81-3.36q.5,2,.87,3.9ZM74.39,163.3c-5,1.75-8.91,1.8-11.3.42-5.08-2.93-7.19-14.24-4.31-29.41q.53-2.69,1.18-5.34a160.83,160.83,0,0,0,21.7,3.14,167.36,167.36,0,0,0,13.82,17.08c-1,1-2,1.9-3.07,2.82-6.25,5.46-12.51,9.34-18,11.29ZM51.16,119.41c-7.85-2.68-14.34-6.17-18.78-10-4-3.42-6-6.82-6-9.57,0-5.87,8.74-13.35,23.32-18.43,1.83-.63,3.68-1.22,5.54-1.74A165.9,165.9,0,0,0,63.08,100a169.25,169.25,0,0,0-7.95,20.63C53.8,120.28,52.47,119.86,51.16,119.41Zm7.79-53c-3-15.47-1-27.13,4-30.06,5.38-3.12,17.29,1.33,29.85,12.47.8.72,1.61,1.46,2.41,2.23A166.11,166.11,0,0,0,81.54,68a168,168,0,0,0-21.49,3.34q-.61-2.47-1.1-5Z"/><circle class="cls-5" cx="100" cy="100" r="9.36"/><path class="cls-6" d="M100,91.64A8.36,8.36,0,1,1,91.64,100,8.37,8.37,0,0,1,100,91.64m0-2A10.36,10.36,0,1,0,110.36,100,10.36,10.36,0,0,0,100,89.64Z"/></g></svg>